:SAMPLES-PER-SECOND 30
:FULLY-SPECIFIED
:DEGREES
147
root  -20.0128 39.4249 6.11868 179.667 -63.6326 172.445
RightUpLeg  -9.74168 -17.9875 -0.197641
RightLeg  18.7068 -13.4004 -3.27353
RightFoot  -4.6255 0.433538 -7.91219
RightToes  -1.74624e-010 0 -3.6325e-017
Spine  4.0997 -0.791339 4.22319
Spine1  5.98861 0.50005 -4.27538
HEad  -10.5495 -28.1567 -1.49525
LeftShoulder1  -0.577074 4.94369 -33.8939
LeftArm  4.65607 1.95683 -34.8601
LeftForeArm  20.8475 -26.003 -4.46842
LeftHand  -0.0309198 6.93459 0.508252
RightShoulder  -0.961447 -6.13357 29.9918
RightArm  23.3905 -2.13467 46.6681
RightForeArm  10.297 21.2612 4.47604
RightHand  -0.0622788 4.54004 -1.02037
LeftUpLeg  4.96535 22.9465 -1.14608
LeftLeg  23.6332 3.54091 2.32624
LeftFoot  -12.7331 0.0634853 -1.6419
LeftToes  2.27646e-009 -8.13696e-011 -1.44715e-011
148
root  -20.5456 39.2394 6.02291 178.116 -61.1704 174.684
RightUpLeg  -10.659 -16.2677 0.836032
RightLeg  20.8831 -12.6418 -3.48743
RightFoot  -6.09324 0.324348 -7.95249
RightToes  -1.74624e-010 0 -3.6325e-017
Spine  4.79853 -1.1834 4.77106
Spine1  5.14716 -0.0871135 -2.48675
HEad  -12.2719 -28.108 -0.851707
LeftShoulder1  -0.420709 4.57575 -33.1092
LeftArm  5.57573 4.38202 -35.4055
LeftForeArm  20.8226 -24.6381 -4.15894
LeftHand  -0.0507446 7.13471 -0.727626
RightShoulder  -0.984593 -6.17324 30.3195
RightArm  23.1453 -1.21651 46.3339
RightForeArm  9.45055 21.3563 4.50211
RightHand  -0.102922 4.35318 -1.50646
LeftUpLeg  -0.722186 22.7548 0.177617
LeftLeg  35.2557 2.50821 2.27399
LeftFoot  -9.89363 0.178071 -7.62403
LeftToes  2.27646e-009 -8.13696e-011 -1.44715e-011
149
root  -21.038 39.0809 6.00013 175.562 -58.9067 177.521
RightUpLeg  -10.4742 -16.33 1.86799
RightLeg  21.9842 -10.7937 -2.73123
RightFoot  -7.25336 0.227267 -7.7134
RightToes  -1.74624e-010 0 -3.6325e-017
Spine  5.95744 -1.81119 6.36368
Spine1  5.18957 -0.681387 -1.72894
HEad  -15.0351 -28.5702 0.844735
LeftShoulder1  -0.307101 4.29539 -32.6703
LeftArm  8.34801 4.94966 -35.6577
LeftForeArm  20.3648 -23.2202 -4.02258
LeftHand  -0.0617465 7.11097 -1.52129
RightShoulder  -1.02699 -6.27558 30.4899
RightArm  23.3628 0.0382108 46.3964
RightForeArm  8.86162 21.9461 4.49591
RightHand  -0.124348 4.76759 -1.71582
LeftUpLeg  -6.61107 21.3798 1.93466
LeftLeg  46.2026 1.40564 1.96479
LeftFoot  -3.4146 0.619081 -9.05356
LeftToes  2.27646e-009 -8.13696e-011 -1.44715e-011
150
root  -21.5164 38.9351 6.02011 173.797 -56.0918 179.776
RightUpLeg  -10.6596 -15.6051 2.95435
RightLeg  23.0408 -9.13135 -2.20466
RightFoot  -8.05604 0.15545 -7.3082
RightToes  -1.74624e-010 0 -3.6325e-017
Spine  7.41485 -2.05504 8.11927
Spine1  4.46762 -0.813628 -1.3375
HEad  -17.2908 -28.6168 2.50499
LeftShoulder1  -0.259497 4.17219 -32.6722
LeftArm  11.2708 4.36353 -35.8471
LeftForeArm  22.1008 -21.1648 -4.37252
LeftHand  -0.100765 7.12901 -3.22971
RightShoulder  -1.09182 -6.4066 31.0702
RightArm  24.9215 0.881004 45.694
RightForeArm  7.61197 22.8099 4.55685
RightHand  -0.125595 5.121 -1.68811
LeftUpLeg  -11.5805 18.7527 3.2932
LeftLeg  52.9346 -0.0227031 0.44382
LeftFoot  -1.30194 0.531779 -5.90882
LeftToes  2.27646e-009 -8.13696e-011 -1.44715e-011
151
root  -22.0192 38.9547 6.04453 174.38 -52.934 179.154
RightUpLeg  -10.5893 -14.3897 2.62421
RightLeg  23.6072 -7.22698 -1.99473
RightFoot  -8.37972 0.128348 -7.13794
RightToes  -1.74624e-010 0 -3.6325e-017
Spine  8.38831 -1.94329 7.95428
Spine1  4.42126 -0.793617 -0.671121
HEad  -19.3865 -28.3535 3.69844
LeftShoulder1  -0.292916 4.24773 -33.2449
LeftArm  11.4757 3.38434 -36.2158
LeftForeArm  25.0708 -19.2429 -5.33292
LeftHand  -0.165141 7.45641 -5.58915
RightShoulder  -1.08063 -6.37669 31.0658
RightArm  26.6809 1.8449 45.6708
RightForeArm  7.31894 22.5184 4.58088
RightHand  -0.0791682 4.69476 -1.21122
LeftUpLeg  -14.2661 15.6759 3.50239
LeftLeg  53.8076 -1.22531 -1.30205
LeftFoot  -3.06939 0.457567 -6.01576
LeftToes  2.27646e-009 -8.13696e-011 -1.44715e-011
152
root  -22.5637 39.0755 6.05547 175.762 -49.2534 177.674
RightUpLeg  -10.3668 -12.722 1.64962
RightLeg  23.4689 -5.07339 -1.60178
RightFoot  -8.34419 0.124803 -6.91332
RightToes  -1.74624e-010 0 -3.6325e-017
Spine  8.45915 -1.59481 7.86231
Spine1  5.14351 -0.338529 -1.4069
HEad  -20.5378 -28.1517 4.42294
LeftShoulder1  -0.21734 4.05822 -33.0767
LeftArm  9.37943 2.74552 -37.1887
LeftForeArm  25.3513 -17.5379 -6.29809
LeftHand  -0.0545045 6.30032 -1.7039
RightShoulder  -1.07623 -6.3592 31.1365
RightArm  27.7878 2.86268 46.2824
RightForeArm  7.60837 20.97 4.80929
RightHand  -0.111865 4.24145 -1.62431
LeftUpLeg  -15.415 11.6652 3.07394
LeftLeg  49.7592 -0.462731 -0.218152
LeftFoot  -4.62972 0.228193 -3.41078
LeftToes  2.27646e-009 -8.13696e-011 -1.44715e-011
153
root  -23.1297 39.245 6.06 176.796 -45.2467 176.775
RightUpLeg  -9.96602 -10.4962 0.829889
RightLeg  22.5417 -3.23942 -1.00531
RightFoot  -7.97678 0.138222 -6.52899
RightToes  -1.74624e-010 0 -3.6325e-017
Spine  8.99658 -1.40354 7.64532
Spine1  4.38414 -0.131492 -1.98778
HEad  -20.4825 -26.3208 4.34635
LeftShoulder1  -0.203497 4.02802 -32.6994
LeftArm  8.6987 4.04756 -38.0041
LeftForeArm  24.8613 -18.2543 -5.75358
LeftHand  -0.130468 7.47413 -4.7131
RightShoulder  -0.978266 -6.11306 30.9161
RightArm  28.7413 3.45885 47.0339
RightForeArm  8.47622 18.2205 5.80908
RightHand  -0.0796526 4.27012 -1.23417
LeftUpLeg  -14.9348 6.49186 3.21973
LeftLeg  41.6331 1.50404 1.81152
LeftFoot  -5.65949 0.118537 -1.73954
LeftToes  2.27646e-009 -8.13696e-011 -1.44715e-011
154
root  -23.7293 39.3827 6.06077 177.448 -41.1395 176.391
RightUpLeg  -9.62633 -8.8752 0.153134
RightLeg  21.6206 -0.858559 -0.162833
RightFoot  -7.7256 0.139144 -6.04869
RightToes  -1.74624e-010 0 -3.6325e-017
Spine  8.63327 -1.04092 8.36624
Spine1  4.62968 0.407393 -3.11708
HEad  -20.1668 -25.2024 3.72396
LeftShoulder1  -0.169565 3.93803 -32.8779
LeftArm  9.27624 4.31985 -38.6392
LeftForeArm  24.8299 -18.155 -5.88077
LeftHand  -0.0638803 7.08099 -1.62186
RightShoulder  -0.961582 -6.07083 30.8763
RightArm  27.875 4.22247 47.2887
RightForeArm  11.2205 15.3605 7.20489
RightHand  -0.0546487 4.0679 -0.942383
LeftUpLeg  -13.2414 -0.39032 3.95972
LeftLeg  30.9499 1.99487 1.6592
LeftFoot  -5.88203 0.141938 -2.25441
LeftToes  2.27646e-009 -8.13696e-011 -1.44715e-011
155
root  -24.3252 39.5156 5.98756 177.923 -37.0944 176.386
RightUpLeg  -9.27215 -7.05267 -0.126854
RightLeg  20.5258 1.30578 0.409067
RightFoot  -7.40641 0.149621 -5.80642
RightToes  -1.74624e-010 0 -3.6325e-017
Spine  8.23704 -0.665744 8.25331
Spine1  4.52179 0.678065 -3.35866
HEad  -19.129 -23.2814 2.99302
LeftShoulder1  -0.237853 4.10758 -33.2733
LeftArm  11.5571 5.07578 -38.9042
LeftForeArm  22.7542 -19.6423 -5.17347
LeftHand  -0.0465931 6.35111 -1.25161
RightShoulder  -0.971908 -6.10217 30.8254
RightArm  27.2771 4.82987 47.0671
RightForeArm  14.4209 12.8899 8.50124
RightHand  -0.0578462 4.07451 -1.00007
LeftUpLeg  -11.2479 -8.50497 5.11717
LeftLeg  19.9192 0.182178 0.50184
LeftFoot  -5.92051 0.222457 -3.88289
LeftToes  2.27646e-009 -8.13696e-011 -1.44715e-011
156
root  -24.8878 39.6155 5.89176 178.122 -33.4096 176.484
RightUpLeg  -8.91746 -4.46401 -0.290579
RightLeg  19.8155 2.46045 0.500854
RightFoot  -7.26243 0.137783 -5.23753
RightToes  -1.74624e-010 0 -3.6325e-017
Spine  7.75105 -0.472108 7.53908
Spine1  4.65119 0.676082 -3.12647
HEad  -18.1652 -20.6639 2.36376
LeftShoulder1  -0.219301 4.05941 -33.3014
LeftArm  13.8125 5.93976 -39.3195
LeftForeArm  20.7495 -21.0744 -4.56389
LeftHand  -0.0608699 6.85791 -1.68933
RightShoulder  -0.971547 -6.08427 31.0698
RightArm  27.2731 5.32895 46.353
RightForeArm  16.1188 11.0658 9.49026
RightHand  -0.0954679 3.13857 -1.53269
LeftUpLeg  -9.83932 -11.6527 5.49935
LeftLeg  12.1487 -4.95799 0.0847428
LeftFoot  -3.83443 0.388857 -5.76391
LeftToes  2.27646e-009 -8.13696e-011 -1.44715e-011
157
root  -25.4009 39.6332 5.85679 178.291 -30.2715 176.743
RightUpLeg  -9.18411 -1.46381 -0.414793
RightLeg  20.012 2.73594 0.516252
RightFoot  -7.39887 0.116408 -4.82554
RightToes  -1.74624e-010 0 -3.6325e-017
Spine  7.87519 -0.58811 6.19371
Spine1  4.22427 0.196262 -2.01923
HEad  -17.2556 -18.086 2.24193
LeftShoulder1  -0.282729 4.21577 -33.527
LeftArm  15.0283 6.37453 -39.7357
LeftForeArm  18.9474 -21.9551 -4.29671
LeftHand  -0.0469003 6.65818 -0.830428
RightShoulder  -0.981117 -6.09626 31.2245
RightArm  25.9857 5.52918 45.5099
RightForeArm  18.4642 9.99276 9.75764
RightHand  -0.06336 3.65809 -1.06195
LeftUpLeg  -9.74208 -5.13319 4.64704
LeftLeg  10.6935 -12.599 -0.446886
LeftFoot  0.291627 0.455273 -4.43507
LeftToes  2.27646e-009 -8.13696e-011 -1.44715e-011
158
root  -25.8877 39.6607 5.89305 178.546 -27.9348 176.822
RightUpLeg  -9.53645 1.5706 -0.837889
RightLeg  20.1894 2.24217 0.353039
RightFoot  -7.42208 0.0920273 -4.15875
RightToes  -1.74624e-010 0 -3.6325e-017
Spine  8.22014 -0.955805 5.46997
Spine1  3.90075 -0.231525 -1.97211
HEad  -16.6226 -15.6837 2.98553
LeftShoulder1  -0.192592 3.99497 -33.0619
LeftArm  15.6753 5.97575 -40.7588
LeftForeArm  18.5055 -22.0726 -4.29655
LeftHand  -0.0279647 6.94414 0.671893
RightShoulder  -1.1464 -6.45394 32.3154
RightArm  24.8247 5.37637 43.9924
RightForeArm  18.1931 10.0384 9.45571
RightHand  -0.0443479 3.06931 -0.837443
LeftUpLeg  -9.73086 -3.92107 4.50471
LeftLeg  11.8376 -10.5112 -0.873256
LeftFoot  -1.15295 0.349586 -3.86872
LeftToes  2.27646e-009 -8.13696e-011 -1.44715e-011
159
root  -26.3328 39.782 5.93607 178.893 -25.3525 176.479
RightUpLeg  -9.34533 3.85451 -1.67408
RightLeg  19.2993 2.69521 0.425846
RightFoot  -7.08385 0.0846548 -3.56128
RightToes  -1.74624e-010 0 -3.6325e-017
Spine  8.87934 -0.979997 3.82275
Spine1  3.59292 -0.539361 -1.05112
HEad  -16.0232 -13.174 3.54522
LeftShoulder1  -0.240837 4.10601 -33.8668
LeftArm  16.7378 4.62951 -40.923
LeftForeArm  19.035 -21.9645 -4.322
LeftHand  -0.0369773 7.33377 0.119102
RightShoulder  -1.10245 -6.36514 31.9684
RightArm  22.3099 4.33127 43.3615
RightForeArm  16.101 9.98851 8.96094
RightHand  -0.0972928 3.4592 -1.52194
LeftUpLeg  -8.71712 -0.864529 3.42639
LeftLeg  10.7577 -10.8944 -0.399418
LeftFoot  -0.243433 0.271973 -2.77468
LeftToes  2.27646e-009 -8.13696e-011 -1.44715e-011
